inDegrees=no
num_controls=7
num_derivatives=13
num_iterations=119
num_multipliers=7
num_parameters=0
num_slacks=7
num_states=26
objective=5.794550
objective_accelerations=0.481472
objective_balance=0.054355
objective_effort=0.437226
objective_height=4.727047
objective_ligament=0.094450
solver_duration=1234.473773
status=Solve_Succeeded
success=true
DataType=double
version=3
OpenSimVersion=4.4-2022-07-23-0e9fedc
endheader
time	/jointset/ground_pelvis/pelvis_tilt/value	/jointset/ground_pelvis/pelvis_tx/value	/jointset/ground_pelvis/pelvis_ty/value	/jointset/hip_l/hip_flexion_l/value	/jointset/hip_l/hip_adduction_l/value	/jointset/hip_l/hip_rotation_l/value	/jointset/back/lumbar_extension/value	/jointset/patellofemoral_l/patellar_flexion_l/value	/jointset/knee_l/knee_flexion_l/value	/jointset/knee_l/knee_adduction_l/value	/jointset/knee_l/knee_rotation_l/value	/jointset/ankle_l/ankle_angle_l/value	/jointset/subtalar_l/subtalar_angle_l/value	/jointset/ground_pelvis/pelvis_tilt/speed	/jointset/ground_pelvis/pelvis_tx/speed	/jointset/ground_pelvis/pelvis_ty/speed	/jointset/hip_l/hip_flexion_l/speed	/jointset/hip_l/hip_adduction_l/speed	/jointset/hip_l/hip_rotation_l/speed	/jointset/back/lumbar_extension/speed	/jointset/patellofemoral_l/patellar_flexion_l/speed	/jointset/knee_l/knee_flexion_l/speed	/jointset/knee_l/knee_adduction_l/speed	/jointset/knee_l/knee_rotation_l/speed	/jointset/ankle_l/ankle_angle_l/speed	/jointset/subtalar_l/subtalar_angle_l/speed	/forceset/tau_hip_flexion_l	/forceset/tau_hip_adduction_l	/forceset/tau_hip_rotation_l	/forceset/tau_knee_flexion_l	/forceset/tau_ankle_angle_l	/forceset/tau_subtalar_angle_l	/forceset/tau_lumbar_extension	lambda_cid13_p0	lambda_cid13_p1	lambda_cid13_p2	lambda_cid13_p3	lambda_cid13_p4	lambda_cid13_p5	lambda_cid14_p0	/jointset/ground_pelvis/pelvis_tilt/accel	/jointset/ground_pelvis/pelvis_tx/accel	/jointset/ground_pelvis/pelvis_ty/accel	/jointset/hip_l/hip_flexion_l/accel	/jointset/hip_l/hip_adduction_l/accel	/jointset/hip_l/hip_rotation_l/accel	/jointset/back/lumbar_extension/accel	/jointset/patellofemoral_l/patellar_flexion_l/accel	/jointset/knee_l/knee_flexion_l/accel	/jointset/knee_l/knee_adduction_l/accel	/jointset/knee_l/knee_rotation_l/accel	/jointset/ankle_l/ankle_angle_l/accel	/jointset/subtalar_l/subtalar_angle_l/accel	gamma_cid13_p0	gamma_cid13_p1	gamma_cid13_p2	gamma_cid13_p3	gamma_cid13_p4	gamma_cid13_p5	gamma_cid14_p0
0	-0.03682199020432892	0.05667726551539656	0.9203416070959858	0.3085811930696054	-0.2956402294096197	-0.3016028522937976	-0.3879500408040475	0.2499276582271169	0.249927658227084	-0.1745328331676279	-0.174528610833146	-0.0008036543073733089	0.000437802646385741	0	0	0	0	0	0	0	0	0	0	0	0	0	0.08742520838237308	-0.05543482927420651	-0.0264789315855439	-0.2953824680275046	0.2856234072150379	-0.03409858674409193	0.0005502157119787332	47.48747931539953	4.520480727625481	1.079583716719443	-21.01937881705825	-631.4773947274854	-66.4775674601964	-23.19683664239912	-0.5335928729329732	-1.334298272191365	-0.7719215632559063	7.642226352583955	-0.7824577020090723	3.17727521712489	-6.791403763452118	9.026490820028855	9.026490820028076	1.286680539940679	-0.0501787356127136	2.477080690384653	0.006802721239942165	-2.651378826538253e-08	1.356314200101987e-07	7.254514927772624e-08	2.513954695211949e-08	1.05322855476174e-08	-2.421992149831097e-08	1.438236882229189e-09
0.01	-0.0368445517339965	0.05660960347836834	0.9203037876532785	0.3089544353768139	-0.2956793443073217	-0.3014435659393011	-0.3882888004940772	0.2503696784302735	0.2503696784302402	-0.1744718238654172	-0.174527964685801	-0.0006850421530957089	0.0004363324999374677	-0.004383383587642168	-0.0136430330335521	-0.007545721612707216	0.07439635662623932	-0.007771526349116815	0.03169377177324081	-0.06736616931860427	0.08796984673972413	0.08796984673972513	0.01215153008843311	0.0001224483394672326	0.02337947387623082	-0.0003578947467543397	0.07164907588033197	-0.06771106913079232	-0.02293862053056389	-0.2697615259690007	0.2409753095520407	-0.006899078468455509	0.01140936717919175	34.02715681963036	-5.026479672987423	2.705595226025579	-12.19571081534066	-633.1797191953531	-85.25412065341364	-23.20188503268945	-0.3713781760589931	-1.395894633952573	-0.7431703145650741	7.300518840505703	-0.7668147959207982	3.140899653722157	-6.651358213023836	8.617102232660075	8.617102232661153	1.171871167467188	0.04244690893780908	2.216937470408213	-0.06669487816446597	-4.105674594666419e-08	1.530702028744868e-07	1.39689964596968e-07	3.609512265897095e-08	-4.892751125185241e-08	-6.519928626919944e-08	-3.114810724145808e-09
0.02	-0.03690708051439155	0.05640219334800387	0.9201910564235872	0.3100640769547643	-0.2957946374074067	-0.300972247567754	-0.3892896488166974	0.2516783712269991	0.2516783712270114	-0.1742908028772143	-0.1745262959971537	-0.0003429239132163876	0.00042936154491557	-0.007993450150367482	-0.02794961866725195	-0.01498235739675038	0.1472798541670816	-0.01523564048046468	0.06240640339834221	-0.1324177265156156	0.1733345187480823	0.1733345187480874	0.02400233714369896	0.000204508287360482	0.04470121711909839	-0.001100161714787607	0.05587294337714523	-0.07998730898767493	-0.01939830947435254	-0.2441405839114505	0.1963272118886618	0.02030042980672795	0.02226851864587411	20.63603587147236	-14.5862915399363	4.334496077274157	-3.521648156268352	-633.873735522906	-103.9472918388228	-23.21673491892645	-0.3789294679500584	-1.467008792220463	-0.7501043975231163	7.339654535504329	-0.7209752584557088	2.981047187495637	-6.328481339133643	8.505455873755841	8.5054558737557	1.226535933306556	-0.05825641392906743	2.065534563712437	-0.07007172301611347	-5.559970362794587e-08	1.70508985738775e-07	2.068347799162098e-07	4.70506983658224e-08	-1.083873080513222e-07	-1.061786510400879e-07	-7.667858330520806e-09
0.03	-0.03700328540896343	0.05605106208790894	0.9200044669200431	0.3118936815695286	-0.2959828969655109	-0.3001986615233653	-0.3909285061986333	0.2538283721778477	0.253828372177864	-0.173992520664846	-0.1745239406998421	0.0002058283383794148	0.0004144590290010136	-0.01124079111934171	-0.04212063038660219	-0.02231723943814332	0.2182184062728211	-0.02236380817238354	0.09214784887429435	-0.1948994971829541	0.2562836988826288	0.2562836988826313	0.03560102036261417	0.0002614179527394002	0.06506885926450685	-0.001818648280979062	0.05263595874352416	-0.0716792497859	-0.01938818027103014	-0.2445165570340199	0.2014292432666006	0.01317348810162715	0.02604846462386777	21.95460896789281	-11.76888438199898	3.938953666445525	-5.465333665444711	-635.6148454772788	-97.48978334964649	-23.2407571442599	-0.2966327820685676	-1.368737461392286	-0.7224564440825406	6.907546353642174	-0.7009244994496411	2.946226804930039	-6.139887027642387	8.132354754909558	8.132354754909258	1.118622933643502	0.03692445876103334	2.025324585265206	-0.06353387385561962	-7.655478310338723e-08	1.157721327777732e-07	2.610383145931106e-07	6.302033153518175e-08	-1.964795861509658e-07	-1.562320213147636e-07	-1.878854137181733e-08
